<svg width="338" height="404" viewBox="0 0 338 404" fill="none" xmlns="http://www.w3.org/2000/svg">
<path d="M187.75 356.75V403.625L131.5 366.125L75.25 403.625V356.75H65.875C48.4702 356.75 31.7782 349.836 19.4711 337.529C7.16405 325.222 0.25 308.53 0.25 291.125V56.75C0.25 41.8316 6.17632 27.5242 16.7252 16.9752C27.2742 6.42632 41.5816 0.5 56.5 0.5H319C323.973 0.5 328.742 2.47544 332.258 5.99175C335.775 9.50805 337.75 14.2772 337.75 19.25V338C337.75 342.973 335.775 347.742 332.258 351.258C328.742 354.775 323.973 356.75 319 356.75H187.75ZM187.75 319.25H300.25V263H65.875C58.4158 263 51.2621 265.963 45.9876 271.238C40.7132 276.512 37.75 283.666 37.75 291.125C37.75 298.584 40.7132 305.738 45.9876 311.012C51.2621 316.287 58.4158 319.25 65.875 319.25H75.25V281.75H187.75V319.25ZM300.25 225.5V38H56.5V226.156C59.6055 225.716 62.7384 225.496 65.875 225.5H300.25ZM75.25 56.75H112.75V94.25H75.25V56.75ZM75.25 113H112.75V150.5H75.25V113ZM75.25 169.25H112.75V206.75H75.25V169.25Z" fill="black"/>
</svg>
